# xmcd
#
# Track frame offsets:
#	150
#	12817
#	29195
#	40970
#	58144
#	85675
#	101646
#	118200
#	142757
#	159247
#	172981
#	189748
#	206770
#
# Disc length: 3058 seconds
#
# Revision: 0
# Processed by: cddbd v1.5.1PL0 Copyright (c) Steve Scherf et al.
# Submitted via: dBpowerAMP V4.0
#
DISCID=af0bf00d
DTITLE=Ray Kaminsky - Roadhouse Blues
DYEAR=1900
DGENRE=Blues
TTITLE0=Crossroad Blues
TTITLE1=Blind Lemon
TTITLE2=Hoochie Coochie Man
TTITLE3=Statesboro Blues
TTITLE4=Devil Got My Woman
TTITLE5=Deep River Blues
TTITLE6=Demon Java
TTITLE7=16 Tons, Hit the Road Jack, One Meatball Medley
TTITLE8=You Don't Know Me
TTITLE9=Rambling On My Mind
TTITLE10=Green, Green Rocky Road
TTITLE11=Stranger Blues
TTITLE12=Hard Times Come Again No More
EXTD=
EXTT0=
EXTT1=
EXTT2=
EXTT3=
EXTT4=
EXTT5=
EXTT6=
EXTT7=
EXTT8=
EXTT9=
EXTT10=
EXTT11=
EXTT12=
PLAYORDER=
